<?xml version="1.0" encoding="UTF-8"?> <svg xmlns="http://www.w3.org/2000/svg" xmlns:xlink="http://www.w3.org/1999/xlink" viewBox="0 0 500 350"><linearGradient id="a" gradientUnits="userSpaceOnUse" x1="198.74" x2="231.26" y1="339.03" y2="339.03"><stop offset="0" stop-color="#4d44fa"></stop><stop offset="1" stop-color="#2cc0f6"></stop></linearGradient><linearGradient id="b"><stop offset="0" stop-color="#4d44fa"></stop><stop offset="1" stop-color="#2dbcf6"></stop></linearGradient><linearGradient id="c" gradientUnits="userSpaceOnUse" x1="210.36" x2="210.36" xlink:href="#b" y1="212.32" y2="151.7"></linearGradient><linearGradient id="d" gradientUnits="userSpaceOnUse" x1="197.82" x2="210.12" xlink:href="#b" y1="186" y2="186"></linearGradient><linearGradient id="e" gradientUnits="userSpaceOnUse" x1="303.48" x2="303.48" xlink:href="#b" y1="334.69" y2="308.07"></linearGradient><linearGradient id="f" gradientUnits="userSpaceOnUse" x1="311.16" x2="311.16" xlink:href="#b" y1="312.78" y2="216.58"></linearGradient><linearGradient id="g" gradientUnits="userSpaceOnUse" x1="297.18" x2="297.18" xlink:href="#b" y1="334.8" y2="214.7"></linearGradient><linearGradient id="h" gradientTransform="matrix(1 0 0 -1 0 352)" gradientUnits="userSpaceOnUse" x1="277.4" x2="301.1" xlink:href="#b" y1="126.5" y2="126.5"></linearGradient><path d="m482.6 233.4c2.6-8.1-1.8-16.9-10-19.5-2.2-.7-4.4-.9-6.5-.6-.3-1.1-.6-2.1-.9-3.2-6.8-26.5-1.7-46.7 5.3-64.6 2.2.5 4.5.5 6.9 0 8.3-2 13.5-10.3 11.6-18.6-1-4.1-3.5-7.5-6.8-9.6 4.7-13 7-25.8 1.9-40.4-16.6-47.2-97.1-76.3-157.9-63.5-55.2 11.7-59.7 50.8-103.6 47.6-44.2-3.3-67.2-45.1-113.8-35.8-3.4.7-14.1 3.1-25.8 10.3-4.6 2.9-8.9 6.2-12.9 9.9-4.6-3.7-10.4-5.9-16.7-5.9-14.7 0-26.7 12-26.7 26.7 0 10.9 6.5 20.2 15.8 24.4-2.7 9-4.3 18.3-4.5 27.2-.9 38.2 22.5 55.9 28.1 78.5-5.7-7.8-15.6-12.2-25.8-10.5-14.6 2.4-24.4 16.1-22.1 30.6s16.1 24.4 30.6 22.1c1.4-.2 2.7-.5 4-1-7.8 7.6-16.8 13.7-21.8 28.5-9.2 27.3 4.6 57 19.1 79.2l389.2.5c20.3-13.4 46.6-35.5 49.7-65.9 1.6-16.4-4.4-26.6-11.2-39.3 2.2-1.8 3.9-4.2 4.8-7.1z" fill="#97bfdd" opacity=".2"></path><ellipse cx="479.7" cy="176.8" fill="#97bfdd" opacity=".2" rx="5.9" ry="5.9"></ellipse><ellipse cx="220.8" cy="32.7" fill="#97bfdd" opacity=".2" rx="13.7" ry="13.7"></ellipse><ellipse cx="178" cy="18.9" fill="#97bfdd" opacity=".2" rx="8.6" ry="8.6"></ellipse><ellipse cx="275.3" cy="10.4" fill="#97bfdd" opacity=".2" rx="8.6" ry="8.6"></ellipse><ellipse cx="33" cy="165.4" fill="#97bfdd" opacity=".2" rx="7.6" ry="7.6"></ellipse><circle cx="11.5" cy="265" fill="#38aae3" opacity=".2" r="8"></circle><circle cx="360.7" cy="173" fill="#fdfdfe" r="102.7"></circle><path d="m360.7 279.2c-58.6 0-106.2-47.7-106.2-106.2s47.6-106.2 106.2-106.2 106.2 47.6 106.2 106.2-47.6 106.2-106.2 106.2zm0-205.4c-54.7 0-99.2 44.5-99.2 99.2s44.5 99.2 99.2 99.2 99.2-44.5 99.2-99.2-44.5-99.2-99.2-99.2z" fill="#282e5b"></path><path d="m358.9 242.2v10.9c0 2.5 3.8 2.5 3.8 0v-10.9c0-2.4-3.8-2.4-3.8 0zm34.9-8.3 5.8 9.3c1.3 2.1 4.6.2 3.3-1.9l-5.7-9.3c-1.4-2.1-4.7-.2-3.4 1.9zm26.7-25.2 9.4 5.6c2.1 1.3 4-2 1.9-3.3l-9.4-5.6c-2.1-1.3-4.1 2-1.9 3.3zm10.5-34.6h10.7c2.5 0 2.5-3.8 0-3.8h-10.7c-2.5 0-2.5 3.8 0 3.8zm-8.8-35.3 9.5-5.3c2.1-1.2.2-4.5-1.9-3.3l-9.5 5.3c-2.1 1.2-.2 4.5 1.9 3.3zm-24.5-26.4 5.2-9.2c1.2-2.1-2.1-4.1-3.3-1.9l-5.2 9.2c-1.2 2.1 2.1 4 3.3 1.9zm-35-10.3v-10.7c0-2.4-3.8-2.4-3.8 0v10.7c0 2.5 3.8 2.5 3.8 0zm-35.5 8.7-5.1-9.5c-1.2-2.2-4.5-.2-3.3 1.9l5.1 9.5c1.1 2.1 4.4.2 3.3-1.9zm-26.1 25-9.4-5.6c-2.1-1.3-4 2-1.9 3.3l9.4 5.6c2.1 1.2 4.1-2.1 1.9-3.3zm-10.3 34.5h-10.8c-2.5 0-2.5 3.8 0 3.8h10.9c2.4 0 2.4-3.8-.1-3.8zm8.3 35.4-9.3 5.3c-2.1 1.2-.2 4.5 1.9 3.3l9.3-5.3c2.1-1.2.2-4.5-1.9-3.3zm25 26-5.4 9.6c-1.2 2.1 2.1 4.1 3.3 1.9l5.4-9.6c1.2-2.1-2.1-4.1-3.3-1.9zm31.5-59.6c0 2.6 2.2 4.8 4.8 4.8h.3c2.6 0 4.8-2.2 4.8-4.8s-2.2-4.8-4.8-4.8h-.3c-2.6.1-4.8 2.2-4.8 4.8z" fill="#282e5b"></path><path d="m361.6 172.4v-42.7c0-1.2-1.9-1.2-1.9 0v42.7c0 1.2 1.9 1.2 1.9 0z" fill="#282e5b"></path><path d="m360.1 171.7c-.6 1.1 1 2 1.6 1l30.4-52.6c.6-1.1-1-2-1.6-1z" fill="#282e5b"></path><path d="m312.1 201.4h-215.3c-7.7 0-13.9-6.2-13.9-13.8v-147.1c0-7.7 6.2-13.9 13.8-13.9h215.5c7.7 0 13.9 6.2 13.9 13.8v147.2c-.1 7.6-6.3 13.8-14 13.8z" fill="#9cbfd8"></path><path d="m306.5 197.6h-204.2c-7.7 0-13.9-6.2-13.9-13.8v-139.5c0-7.7 6.2-13.9 13.8-13.9h204.3c7.7 0 13.9 6.2 13.9 13.8v139.5c0 7.7-6.2 13.9-13.9 13.9z" fill="#fefefe"></path><path d="m105.4 53.1h46m-46 6.6h46m-46 6.7h46m-46 6.7h46m-46 6.6h17.9" style="fill:none;stroke:#0254a9;stroke-width:2.395;stroke-linecap:round;stroke-linejoin:round;stroke-miterlimit:10"></path><path d="m122 149.9h7.3l.2-2.1v-16.3h-19.1v26.4h9.1c.9 0 1.7-.1 2.5-.3z" fill="#fd9c01"></path><path d="m122 157.4c3.7-.9 6.5-3.9 7.3-7.6h-7.3z" fill="#c77b13"></path><path d="m149.4 121.4h7.3l.2-2.1v-16.3h-19.1v26.4h9.1c.9 0 1.7-.1 2.5-.3z" fill="#0254a9"></path><path d="m149.4 129c3.6-.9 6.5-3.9 7.3-7.6h-7.3z" fill="#023f80"></path><path d="m153.8 164.1h8.8c.2-.9.3-1.7.3-2.6v-19.6h-22.9v31.6h10.9c1 0 2-.1 3-.4z" fill="#4385f4"></path><path d="m153.8 173.2c4.4-1.1 7.8-4.6 8.8-9.1h-8.8z" fill="#034c8a"></path><path d="m179.4 51.5h126.1c.9 0 1.6.7 1.6 1.6v92.5c0 .9-.7 1.6-1.6 1.6h-126.1c-.9 0-1.6-.7-1.6-1.6v-92.5c-.1-.9.6-1.6 1.6-1.6-.1 0-.1 0 0 0z" fill="#0254a9"></path><path d="m178.2 51.5h128.6c.2 0 .4.2.4.4v20.8c0 .2-.2.4-.4.4h-128.6c-.2 0-.4-.2-.4-.4v-20.8c0-.2.2-.4.4-.4z" fill="#4385f4"></path><g fill="#fefefd"><path d="m186.8 98.5h12.4c.2 0 .4.2.4.4v6.8c0 .2-.2.4-.4.4h-12.4c-.2 0-.4-.2-.4-.4v-6.8c.1-.3.2-.4.4-.4z"></path><path d="m186.8 108.8h12.4c.2 0 .4.2.4.4v6.8c0 .2-.2.4-.4.4h-12.4c-.2 0-.4-.2-.4-.4v-6.8c.1-.2.2-.4.4-.4z"></path><path d="m186.8 119.3h12.4c.2 0 .4.2.4.4v6.8c0 .2-.2.4-.4.4h-12.4c-.2 0-.4-.2-.4-.4v-6.8c.1-.3.2-.4.4-.4z"></path><path d="m186.8 129.9h12.4c.2 0 .4.2.4.4v6.8c0 .2-.2.4-.4.4h-12.4c-.2 0-.4-.2-.4-.4v-6.8c.1-.2.2-.4.4-.4z"></path><path d="m203.2 98.5h12.5c.2 0 .4.2.4.4v6.8c0 .2-.2.4-.4.4h-12.5c-.2 0-.4-.2-.4-.4v-6.8c.1-.3.2-.4.4-.4z"></path><path d="m203.2 108.8h12.5c.2 0 .4.2.4.4v6.8c0 .2-.2.4-.4.4h-12.5c-.2 0-.4-.2-.4-.4v-6.8c.1-.2.2-.4.4-.4z"></path><path d="m203.2 119.3h12.5c.2 0 .4.2.4.4v6.8c0 .2-.2.4-.4.4h-12.5c-.2 0-.4-.2-.4-.4v-6.8c.1-.3.2-.4.4-.4z"></path><path d="m203.2 129.9h12.5c.2 0 .4.2.4.4v6.8c0 .2-.2.4-.4.4h-12.5c-.2 0-.4-.2-.4-.4v-6.8c.1-.2.2-.4.4-.4z"></path><path d="m219.3 98.5h12.5c.2 0 .4.2.4.4v6.8c0 .2-.2.4-.4.4h-12.5c-.2 0-.4-.2-.4-.4v-6.8c.1-.3.2-.4.4-.4z"></path><path d="m219.3 108.8h12.5c.2 0 .4.2.4.4v6.8c0 .2-.2.4-.4.4h-12.5c-.2 0-.4-.2-.4-.4v-6.8c.1-.2.2-.4.4-.4z"></path><path d="m219.3 119.3h12.5c.2 0 .4.2.4.4v6.8c0 .2-.2.4-.4.4h-12.5c-.2 0-.4-.2-.4-.4v-6.8c.1-.3.2-.4.4-.4z"></path><path d="m219.3 129.9h12.5c.2 0 .4.2.4.4v6.8c0 .2-.2.4-.4.4h-12.5c-.2 0-.4-.2-.4-.4v-6.8c.1-.2.2-.4.4-.4z"></path><path d="m235.7 88.3h12.4c.2 0 .4.2.4.4v6.8c0 .2-.2.4-.4.4h-12.4c-.2 0-.4-.2-.4-.4v-6.8c.1-.2.2-.4.4-.4z"></path><path d="m235.7 98.5h12.4c.2 0 .4.2.4.4v6.8c0 .2-.2.4-.4.4h-12.4c-.2 0-.4-.2-.4-.4v-6.8c.1-.3.2-.4.4-.4z"></path><path d="m235.7 108.8h12.4c.2 0 .4.2.4.4v6.8c0 .2-.2.4-.4.4h-12.4c-.2 0-.4-.2-.4-.4v-6.8c.1-.2.2-.4.4-.4z"></path><path d="m235.7 119.3h12.4c.2 0 .4.2.4.4v6.8c0 .2-.2.4-.4.4h-12.4c-.2 0-.4-.2-.4-.4v-6.8c.1-.3.2-.4.4-.4z"></path><path d="m235.7 129.9h12.4c.2 0 .4.2.4.4v6.8c0 .2-.2.4-.4.4h-12.4c-.2 0-.4-.2-.4-.4v-6.8c.1-.2.2-.4.4-.4z"></path><path d="m252.1 88.3h12.5c.2 0 .4.2.4.4v6.8c0 .2-.2.4-.4.4h-12.5c-.2 0-.4-.2-.4-.4v-6.8c0-.2.2-.4.4-.4z"></path><path d="m252.1 98.5h12.5c.2 0 .4.2.4.4v6.8c0 .2-.2.4-.4.4h-12.5c-.2 0-.4-.2-.4-.4v-6.8c0-.3.2-.4.4-.4z"></path><path d="m252.1 108.8h12.5c.2 0 .4.2.4.4v6.8c0 .2-.2.4-.4.4h-12.5c-.2 0-.4-.2-.4-.4v-6.8c0-.2.2-.4.4-.4z"></path><path d="m252.1 119.3h12.5c.2 0 .4.2.4.4v6.8c0 .2-.2.4-.4.4h-12.5c-.2 0-.4-.2-.4-.4v-6.8c0-.3.2-.4.4-.4z"></path><path d="m252.1 129.9h12.5c.2 0 .4.2.4.4v6.8c0 .2-.2.4-.4.4h-12.5c-.2 0-.4-.2-.4-.4v-6.8c0-.2.2-.4.4-.4z"></path><path d="m268.4 88.3h12.5c.2 0 .4.2.4.4v6.8c0 .2-.2.4-.4.4h-12.5c-.2 0-.4-.2-.4-.4v-6.8c0-.2.2-.4.4-.4z"></path><path d="m268.4 98.5h12.5c.2 0 .4.2.4.4v6.8c0 .2-.2.4-.4.4h-12.5c-.2 0-.4-.2-.4-.4v-6.8c0-.3.2-.4.4-.4z"></path><path d="m268.4 108.8h12.5c.2 0 .4.2.4.4v6.8c0 .2-.2.4-.4.4h-12.5c-.2 0-.4-.2-.4-.4v-6.8c0-.2.2-.4.4-.4z"></path><path d="m268.4 119.3h12.5c.2 0 .4.2.4.4v6.8c0 .2-.2.4-.4.4h-12.5c-.2 0-.4-.2-.4-.4v-6.8c0-.3.2-.4.4-.4z"></path></g><path d="m285.1 88.3h12.5c.2 0 .4.2.4.4v6.8c0 .2-.2.4-.4.4h-12.5c-.2 0-.4-.2-.4-.4v-6.8c0-.2.2-.4.4-.4z" fill="#fd9c01"></path><path d="m285.1 98.5h12.5c.2 0 .4.2.4.4v6.8c0 .2-.2.4-.4.4h-12.5c-.2 0-.4-.2-.4-.4v-6.8c0-.3.2-.4.4-.4z" fill="#fd9c01"></path><path d="m285.1 108.8h12.5c.2 0 .4.2.4.4v6.8c0 .2-.2.4-.4.4h-12.5c-.2 0-.4-.2-.4-.4v-6.8c0-.2.2-.4.4-.4z" fill="#fd9c01"></path><path d="m285.1 119.3h12.5c.2 0 .4.2.4.4v6.8c0 .2-.2.4-.4.4h-12.5c-.2 0-.4-.2-.4-.4v-6.8c0-.3.2-.4.4-.4z" fill="#fd9c01"></path><path d="m186.6 77.3h12.9c.1 0 .1.1.1.2v2.8c0 .1-.1.2-.1.2h-12.9c-.1 0-.1-.1-.1-.2v-2.8c0-.1 0-.2.1-.2z" fill="#fefefd"></path><path d="m203 77.3h12.9c.1 0 .1.1.1.2v2.8c0 .1-.1.2-.1.2h-12.9c-.1 0-.1-.1-.1-.2v-2.8c0-.1 0-.2.1-.2z" fill="#fefefd"></path><path d="m219.1 77.3h12.9c.1 0 .1.1.1.2v2.8c0 .1-.1.2-.1.2h-12.9c-.1 0-.1-.1-.1-.2v-2.8c0-.1 0-.2.1-.2z" fill="#fefefd"></path><path d="m235.5 77.3h12.9c.1 0 .1.1.1.2v2.8c0 .1-.1.2-.1.2h-12.9c-.1 0-.1-.1-.1-.2v-2.8c0-.1 0-.2.1-.2z" fill="#fefefd"></path><path d="m251.9 77.3h12.9c.1 0 .1.1.1.2v2.8c0 .1-.1.2-.1.2h-12.9c-.1 0-.1-.1-.1-.2v-2.8c-.1-.1 0-.2.1-.2z" fill="#fefefd"></path><path d="m268.2 77.3h12.9c.1 0 .1.1.1.2v2.8c0 .1-.1.2-.1.2h-12.9c-.1 0-.1-.1-.1-.2v-2.8c-.1-.1 0-.2.1-.2z" fill="#fefefd"></path><path d="m284.9 77.3h12.9c.1 0 .1.1.1.2v2.8c0 .1-.1.2-.1.2h-12.9c-.1 0-.1-.1-.1-.2v-2.8c-.1-.1 0-.2.1-.2z" fill="#fd9c01"></path><path d="m187.1 57.5h57c.7 0 1.2.4 1.2 1v1.3c0 .5-.5 1-1.2 1h-57c-.7 0-1.2-.4-1.2-1v-1.3c0-.6.5-1 1.2-1z" fill="#fd9c01"></path><path d="m187 63.7h39.6c.6 0 1.1.5 1.1 1.1v1.4c0 .6-.5 1.1-1.1 1.1h-39.6c-.6 0-1.1-.5-1.1-1.1v-1.4c0-.7.5-1.1 1.1-1.1z" fill="#fff"></path><path d="m247.7 86.3c-.3-.3-.8-.3-1.1 0l-4.7 4.7-4.7-4.7c-.3-.3-.8-.3-1.1 0s-.3.8 0 1.1l4.7 4.7-4.7 4.7c-.3.3-.3.8 0 1.1.1.1.3.2.5.2s.4-.1.5-.2l4.7-4.7 4.7 4.7c.1.1.3.2.5.2s.4-.1.5-.2c.3-.3.3-.8 0-1.1l-4.7-4.7 4.7-4.7c.5-.3.5-.8.2-1.1z" fill="#fd9c01"></path><path d="m198.8 96.5c-.3-.3-.8-.3-1.1 0l-4.7 4.7-4.7-4.7c-.3-.3-.8-.3-1.1 0s-.3.8 0 1.1l4.7 4.7-4.7 4.7c-.3.3-.3.8 0 1.1.1.1.3.2.5.2s.4-.1.5-.2l4.7-4.7 4.7 4.7c.1.1.3.2.5.2s.4-.1.5-.2c.3-.3.3-.8 0-1.1l-4.7-4.7 4.7-4.7c.5-.3.5-.8.2-1.1z" fill="#fd9c01"></path><path d="m215.2 96.5c-.3-.3-.8-.3-1.1 0l-4.7 4.7-4.7-4.7c-.3-.3-.8-.3-1.1 0s-.3.8 0 1.1l4.7 4.7-4.7 4.7c-.3.3-.3.8 0 1.1.1.1.3.2.5.2s.4-.1.5-.2l4.7-4.7 4.7 4.7c.1.1.3.2.5.2s.4-.1.5-.2c.3-.3.3-.8 0-1.1l-4.7-4.7 4.7-4.7c.5-.3.5-.8.2-1.1z" fill="#fd9c01"></path><path d="m275.7 92.1 4.7-4.7c.3-.3.3-.8 0-1.1s-.8-.3-1.1 0l-4.7 4.7-4.7-4.7c-.3-.3-.8-.3-1.1 0s-.3.8 0 1.1l4.7 4.7-4.7 4.7c-.3.3-.3.8 0 1.1.1.1.3.2.5.2s.4-.1.5-.2l4.7-4.7 4.7 4.7c.1.1.3.2.5.2s.4-.1.5-.2c.3-.3.3-.8 0-1.1z" fill="#fd9c01"></path><path d="m264.1 86.3c-.3-.3-.8-.3-1.1 0l-4.7 4.7-4.7-4.7c-.3-.3-.8-.3-1.1 0s-.3.8 0 1.1l4.7 4.7-4.7 4.7c-.3.3-.3.8 0 1.1.1.1.3.2.5.2s.4-.1.5-.2l4.7-4.7 4.7 4.7c.1.1.3.2.5.2s.4-.1.5-.2c.3-.3.3-.8 0-1.1l-4.7-4.7 4.7-4.7c.5-.3.5-.8.2-1.1z" fill="#fd9c01"></path><path d="m213.9 328.7c-.5.2-.9.4-1.4.6 6.2-6.5 11.4-12.8 15.5-18.6-3.7.9-13.2 3.7-21.4 12.5-.1.1-.1.2-.2.2.6-3.6 1-6.8 2.8-11.5s4.1-8.2 5.7-10.4c-2.6 1.1-6.9 3.5-10.4 8-1.5 1.9-3.4 4.9-5.2 11.3-.1.2-.1.4-.2.7.4-7.9-.2-10.6-1.1-13-1.9-5-5.3-8.2-7.6-10.1 1 2.6 2.1 6.6 2.1 11.6 0 5.5-1.3 8.8-1.9 11.8 0 .1 0 .2-.1.3-2.9-8.6-6.2-16.2-9.4-22.6-.9 3.8-2.8 13.5 1.2 24.8.3.8.6 1.5.9 2.2-2.4-2.2-4.6-3.7-7.6-6.9-3.4-3.7-6.4-7.9-8.8-12.4 0 3 .3 7.9 2.7 13.4 2.1 4.9 4.9 8 6.9 10.2.7.7 1.3 1.4 2 2.1-4.4-1.9-8.4-3-14.5-6.4-2.9-1.6-5.6-3.3-8.3-5.2 1.8 3.4 6.9 11.9 17.4 17.7 8.6 4.7 16.8 5.4 21.3 5.4.6.1 1.3.3 2.3.4h1.1c7.3.2 12.9-4.6 15-6.4 4.6-3.8 12.3-8.5 25.8-12.8-4.1-.6-13.7-1.5-24.6 3.1z" fill="#38aae3"></path><path d="m23 345.7h471" style="fill:none;stroke:#282e5b;stroke-width:5.023;stroke-linecap:round;stroke-linejoin:round;stroke-miterlimit:10"></path><path d="m235.2 342.4c0-.6-.4-1.2-.8-1.6-1.2-1.1-2.7-1.7-4.2-2.5l-2.3-1.2c-.4-.2-1-.6-1.4-.6-.1 0-.2.1-.2.1-.8-1-1.8-1.1-2.8-1.7s-2-1-2.9-1.9c-1.3-1.4-2-3-2.3-5.1-.5-2.6-.5-5.4-.4-8.1l.5-8.4.9-9.4c.2-2.5.3-4.8.2-7.3-.1-2.9-.5-5.9-.9-8.8l-.7-7.4v-8.3l-.4-4.4c0-.8-.1-1.6-.2-2.4l4-.8-4.3-9.1c-3.2 1.1-6.4 2.3-9.6 3.5-.1 0-.1 0-.2-.1l-.1.1-7 2.5.2 8.5c1.2-.4 2.3-.7 3.5-1.1.6 1.8 1.2 3.5 1.7 5.3s.7 3.8.8 5.8c.2 4.6 0 9.1.2 13.8.3 4.4.8 8.7 1.4 13.1.7 4.6 1.6 9.2 1.8 14 .1 4.8-.8 9.6-1.8 14.3-.1-.1-.2-.2-.3-.2s-.2.1-.3.2c-.7 1.2-1.2 2.7-1.3 4-.2 1.6-.2 3.3.4 4.7.9 2.1 2.9 2.1 4.5 2.2l11.5.3c3.4 0 6.8.4 10.3.4.6 0 1.3-.1 1.7-.7.7-.4.8-1 .8-1.7zm-21.1-183.9s16.7-2.9 19.5-5c1.9-1.5 4.1-2.8 6-5.5 1.2-1.7 1.5-2.8 3.3-4.9 1-1.2 1.9-2.1 3.7-3.8l4.8-4.3c1.3 0 1.6.3 1.7.5.2.7-1.8 1.5-3.2 3.9-.4.6-.7 1.3-.8 2 .4.2 3.3 1.6 3.3 3.6 0 .6-.3 1.2-.9 1.9-1.8 2-8 5.7-8 5.7s-3.6 4-6.3 5.7-17.5 16-27.7 15.7l3.5-15.3z" fill="#bc6c56"></path><path d="m220.9 336.5-3.2-1.5c-1.1-.5-2.3-.9-3.4-1.6-1.6-1-2.4-2.7-3-4.4-.7-2.2-.9-4.5-1-6.9s.1-4.8.3-7.1l1.1-8.1.7-6.4c.1-2.5 0-5-.1-7.5-.1-2-.1-4 .4-6l1.9-6.5.9-3.6c.4-1.1.7-2.3.9-3.5.1-.6.1-1.2.2-1.8l-9.2-6.4-6.7 5.6v1.3l.1 6.6c0 1.9-.3 3.7-.6 5.5-.8 4.3-1.6 8.4-1.7 12.8-.1 4 .2 8.1.8 12.1.7 4.2 1.6 8.3 2.1 12.5.4 4.1.2 8.2-.7 12.3l5 9.7 18-.9z" fill="#d08b73"></path><path d="m216.6 271.6c-.1.6-.1 1.2-.2 1.8-.1.4-.2.9-.3 1.3-2-.3-4.3-.7-5.8-.8l-9.6-.6v-3l6.7-5.1z" fill="#bc6c56"></path><path d="m200.2 333.8c-.8 1-1.2 2.5-1.4 3.8-.2 1.4-.1 3.1.5 4.5.8 2 3.3 2.1 5.2 2.2 4.3.2 8.7.1 13 .1 3.8 0 7.7.2 11.5-.1.7-.1 1.4-.2 1.8-.8.3-.5.5-1.2.4-1.8-.1-.7-.5-1.2-1-1.6-1.4-1-3.2-1.5-4.8-2.1-.9-.3-1.7-.7-2.6-1-.5-.2-1.1-.5-1.7-.5-.5 0-.2.6-.3 1-.4 1.5-1.9 2.2-3.3 2.4-1.7.2-3.5 0-5.1-.4-2-.4-3.9-.9-5.8-1.5-1.4-.5-2.7-1-3.8-2.1-.6-.6-1.2-1.3-1.8-2-.1-.1-.3-.3-.5-.3-.1.1-.2.1-.3.2z" fill="url(#a)"></path><path d="m217.9 128.9c.7-2 1.2-8.9-3.2-13.1-4.9-4.8-14-4-18.6.3-2.5 2.3-3.3 5.3-4.1 11.6-2 15.8-1 24.5-1 24.5 1.1 9.7 2 23.6 1.9 43.8 8.6 2.5 13 .4 14.7-.7 9-5.7 10.5-25.3-.3-47.7l7.8-10.8z" fill="#4b2a2d"></path><path d="m216.7 127.4 1.1 3c.2.4 3.6 2.5 4.1 3.4s-1.6 1.6-1.6 1.6c-.2 1-.4 2.3-.1 3.8.3 1.9 1 2.5.8 3.9-.2 1.1-.9 2.5-2 2.9-.8.3-1.3-.1-3.2-.5-1.2-.3-2.3-.4-3-.4-.4 1.9-.7 4.3-.7 7 0 4.6 1 8.3 1.9 10.9l-16.1-9.2c.4-.3 5.3-4.1 5-9.7-.1-2.3-1-4-1.7-5-.4-.1-1.9-.5-2.7-1.9-.8-1.3-1-3.6.1-4 1.6-.6 2.6.4 2.9 1.1 1.2-.2 2.2-3 2.6-3.9 1.2-2.8.5-5.5-.1-8.4-.1-.6 1.6.7 2.1 1.1 1.9 1.8 5 3.6 10.6 4.3z" fill="#d08b73"></path><path d="m200.4 136c.1 0 .1.4-.4.5-.2.1-.5.1-.8-.1s-.5-.4-.6-.8c-.1-.3-.1-.6.1-.9.1-.1.2-.3.4-.3h.4c.4.2.5.3.5.4s-.3.1-.6 0c-.2 0-.2 0-.2.1v.5c.1.4.4.6.7.6.3.1.5 0 .5 0z" fill="#bc6c56"></path><path d="m212.8 145.1c-.3 1.2-.5 2.7-.6 4.3-2.1-2.7-7.7-9.7-6.4-8.6 2.9 2.3 5.8 4 7 4.3z" fill="#bc6c56"></path><path d="m224.7 260.3-.8-3.8-1.2-7.8-.7-7.5-.4-7.6-.5-4.1c-.1-1-.3-2.1-.2-3.1s2.3-16 2.6-17l-11.8-2.4-14.4 4.4c-1.4 2.2-2.5 4.5-3.6 6.9-.9 2.1-1.5 4.2-1.6 6.5 0 2.5.4 5 1 7.5.6 2.4 1.5 4.7 2.5 7 .3.7.5 1.3.6 2 .1 1.1-.1 2.2-.1 3.2l-.7 8.3c-.2 2.4-.6 4.8-1 7.1l-1.1 6.3c-.1.3-.1.5-.1.8.1.9 1.5 1 2.2 1.1 2.1.5 3.8 2 5.9 2.6 2.3.7 4.8.5 7.1.6l7.8.1c1.9-.2 4.3-.3 6-1.4 1.1-.6 1.5-1.8 1.8-2.9.4-1 .6-2.2 1.1-3.2.2-.4.4-.7.4-1.1 0-.7-.5-1.6-.8-2.5z" fill="#c4422b"></path><path d="m223.3 210.5c-.2.9-.4 2.3-.6 3.9h-11.4s-9.2.1-12.3-.6c-1.2-.3-2-.5-2.6-.8.3-.5.6-1 .9-1.6l5.4-1.7z" fill="#802a1c" opacity=".5"></path><path d="m221.4 212.3c.6 0 1.2-.1 1.8-.1.1 0 .3 0 .4-.1.3-.3 0-1 0-1.3-.6-3.5-.5-7.1-.5-10.6.1-3.8.3-7.5.6-11.3.1-1.6.1-3.2.6-4.7.5-1.6 1.4-3 2-4.5.9-2.3.4-4.9-.8-7-.9-1.4-2.1-2.7-3.2-4-1-1.2-2-2.3-3.1-3.5-1.3-1.4-2.6-2.7-3.8-4.1-1.3-1.4-2.5-2.9-3.9-4.2-1.2-1.1-2.5-2.1-3.8-3-1.2-.8-2.5-1.6-3.9-2-2.1-.5-4.4.6-6 2-2.4 2.1-3.2 5.1-3.5 8.2-.2 1.7-.2 3.4-.3 5.2 0 .1-.9-1.1 5.2 25.4.1.5.2 1.1.4 1.6.2.4.4.9.4 1.4 0 .6-.4.9-.7 1.3s-.2.8-.2 1.3c0 .4-.2.8 0 1.3.3.7 1.1 1.2 1.1 2-.1 3.3-3.3 9-3.3 9.5 0 .4.8.6 1.1.7 1.4.4 2.9.5 4.3.5 1.9.1 3.9 0 5.8.1 1.7 0 3.3 0 5-.1z" fill="url(#c)"></path><path d="m197.8 169.4s2.2 17.7 3.5 21.6 8.8 11.6 8.8 11.6l-8.3-32.7z" fill="url(#d)"></path><path d="m229.9 228.8c-.3-1.8-1.5-2.3-2.9-5l-4-7.9c-1.3-2.7-2.5-5.4-3.4-8.3l-2.6-8.4c-1-2.7-2.3-5.3-2.9-8.1-.6-2.9-.8-5.8-1-8.8l-.8-8.9-.2-4.2c.1-.5.1-1 .1-1.5.2-1.9.5-3.8.2-5.8-.3-1.6-1-3.2-2.1-4.5-1.2-1.4-3.1-2.6-5-2.2-4.7.9-9.3 9.8-9.4 13.3 0 .6.1 1.2.4 1.7.6.9 1.7 1.4 2.6 2 1 2.8 1.6 5.7 2.2 8.6.6 2.8 1.3 5.5 1.8 8.3.6 3 1 6.1 2.1 9 1 2.8 2.6 5.4 4.1 7.9s3 5 4.7 7.4c1.6 2.4 3.3 4.8 5.2 7 1.1 1.4 2.9 2.8 3.1 4.7.8 6.3 2.8 7.4 2.4 9.8-.2 1.1-.6 2.2-.6 3.3 0 .5.2 1.1.6 1.4.8.6 1.9-1.4 2-1.8 3.2-8.7 4-5 3.4-9z" fill="#d08b73"></path><path d="m111 338.9c-.1-.5-.1-1-.5-1.3-.5-.5-1.3-.6-1.9-.7-3-.7-5.9-1.5-8.7-2.7-1.2-.6-2.5-1.2-3.5-2.1-1-.8-1.6-2-2.6-2.8-.3-.3-.7-.5-1-.7l-15.6 3.1c-.4 1.3-.6 2.6-.7 4l-.4 4.4c-.1 1.1 0 2.3 1 2.9.6.3 1.3.5 1.9.5 1.5.2 3.1.1 4.6.1h18.7c2.7 0 5.5-.1 7.8-1.5 1.2-.8 1-2.1.9-3.2z" fill="#282e5b"></path><path d="m108.9 269.3-.9-6.3-.6-6.7-.8-7.6-.4-3c-.2-.8-.5-1.6-.6-2.4-.1-.6.1-1.2.2-1.8.1-.5 0-1-.1-1.5-.2-.9-.6-1.8-.8-2.7-.3-1.1-.5-2.2-.7-3.3l-2.1-9.4-13.7-7.3-9 106.2 11.3 6.5c.4 0 .8-.1 1-.4.3-.2.3-.5.4-.7.2-.4.7-.1.9-.5.1-.2.1-.4.1-.6-.1-1-.4-1.9-.5-2.8-.1-.7-.1-1.5-.2-2.2-.1-.5-.4-1-.4-1.5 0-.3.2-.6.4-.9.4-.6.8-1.1 1-1.7.3-.9.3-1.8.1-2.8-.3-1.5-.6-2.8-.1-4.2.7-2.3 1.9-4.4 2.9-6.6l2.7-6.2 2.4-6.6c.3-.9.6-1.7 1-2.5.5-.8 1.1-1.4 1.7-2.1 1.3-1.6 2.1-3.6 3-5.5.9-2 1.9-4.1 2.2-6.3.6-2.3 0-4.5-.4-6.6z" fill="#282e5b"></path><path d="m107.3 338.9c-.1-.5-.1-1-.5-1.3-.5-.5-1.3-.6-1.9-.7-3-.7-5.9-1.5-8.7-2.7-1.2-.6-2.5-1.2-3.5-2.1-1-.8-1.6-2-2.6-2.8-.3-.3-.7-.5-1-.7l-15.6 3.1c-.4 1.3-.6 2.6-.7 4l-.4 4.4c-.1 1.1 0 2.3 1 2.9.6.3 1.3.5 1.9.5 1.5.2 3.1.1 4.6.1h18.7c2.7 0 5.5-.1 7.8-1.5 1.3-.8 1.1-2.1.9-3.2z" fill="#0254a9"></path><path d="m71.3 230c.1.7.2 1.3.5 1.9.3.5.7.9.8 1.5 4.6 19.6 3.7 35.9 3.2 37.6-.2.8-.7 1.6-1.1 2.4-.1.1-2.8 21-2.8 21.1-.3 2.4-.4 4.8-.6 7.1l-.3 7.5c-.4 20.2 4.9 11.5 2.4 18-.2.5-.4.9-.2 1.4.1.4.4.8.3 1.2-.1.5-.3 1-.2 1.5.2 1 1.2 1.1 2 1.3 1.9.4 4 .9 5.9.3 1.2-.4 2-1.4 3.2-1.8.5-.2 1.1-.1 1.6-.4s.7-.9 1-1.3c.5-.5 1.5-.3 1.9-.9.2-.2.2-.6.2-.9 0-.9-.3-1.7-.5-2.6-.3-1-.5-2.1-.7-3.2-.1-1.2-.2-2.4-.5-3.6-1.4-6.2-.2-15.4.4-26.5.1-1 .3-1.9 1-2.6.6-.5 1.3-.9 1.9-1.3.5-.3.9-.8 1.2-1.3 1.3-1.9 1.7-4.3 1.8-6.6.7-14.8 4.6-26.6 5.5-36.7.2-2.4.3-4.9.3-7.3l-5.2-30.4-20.2 8.6z" fill="#4385f4"></path><path d="m100.9 224.4-.1 7.3s-.9-.5-2.2-1.3c-3.7-2.2-11-6.2-14.3-6.5-3.6-.3-10.1 5.9-12.4 8.2 0 0-.1-.1-.1-.2-.3-.6-.4-1.2-.5-1.9l.8-4.6 11.7-9.3 13.5 6.5z" fill="#282e5b"></path><path d="m106 229.5c-.4-1.2-.9-2.3-1.1-3.5 0-.1-4-59.4-9.6-68.2-.4-.7-.8-1.4-.9-2.2-.2-1-.3-2-.6-3-.3-.8-.4-1.7-.7-2.6-.1-.3-.2-.7-.5-.9-.1-.1-.3-.1-.4 0-.7.3-1.2 1-1.8 1.5s-1.2.9-1.9.4c-.9-.6-1.7-1.4-2.5-2.1-.9-.9-1.7-1.8-2.5-2.7-1.2-1.5-2.2-3.2-4-4-.4-.2-.9-.3-1.3-.4-.1 0-.2 0-.4-.1l-.9.9c-1.6 1.4-3.2 2.8-4.6 4.3-1.4 1.4-2.4 2.9-3.2 4.7-1.6 3.8-3.1 7.7-3.9 11.8 0 .1-.8 3.6-1.3 12.3 0 .5.2.9.1 1.4 0 .5-.3.9-.4 1.3-.1.5 0 .9 0 1.4s-.3 1-.4 1.6.3 1.1.8 1.6l2.9 6.1v1.3l.4 10.6 1.8 30.7c.7 2.8 5.3-5.1 9.8-7.9 2.2-1.3 4.5-2.2 7.1-2 2.3.2 4.7 1 6.8 2.1l5.6 4.3c.9.5 2 .7 2.9 1.1 1 .5 1.6 1.3 2.7 1.6.4.1 1.9.5 2.2-.1.1-.5-.1-1-.2-1.3z" fill="#0254a9"></path><path d="m100.7 115.7c1-4.5 2.3-5.8 1.5-7.2-.4-.7-1-.7-7.5-1.6-3.7-.5-4.9-.7-6.8-.5-1.2.1-2.5.3-4.1 1-1.8.8-2 1.4-5 3.4-2.4 1.6-2.6 1.4-2.9 1.9-1.3 2 .6 3.7.7 8 0 3.6-1.4 3.9-1 7.2.1 1 .5 3.6 2.6 5.9.4.5 2 2 4.4 2.6 5.2 1.3 10.1-3 11.9-4.6 1.3-1.2 3.9-3.5 5.2-7.3.9-3.2-.1-4 1-8.8z" fill="#282e5b"></path><path d="m78.1 179.5s-.7-2-.2-4.2 1.6-4 1.6-5.1 0-2.9.3-3.7c.3-.9 1.1-6 1.1-6s2.3 11.8 1.3 13.9-1.8 6.5-1.8 6.5l-1.9 1.3z" fill="#282e5b"></path><path d="m93.3 212.9-2.7-1.6c-.3-.5-.6-1.2-1.1-2.1l-.4-1c-.4-.8-1-1.6-1.4-2.4l-2-4.5-2.1-4.4c-.6-1.3-1.1-2.6-1.5-4l-1.1-4.7-1.3-4.6-7.3-2.1-5.4 1.9-.5 4.9 4.7 8.8c1.5 2.6 3.4 5 5.6 7.2l4.1 4.3 2.7 3.1c1.3 1.2 1.7 1.3 2.5 2.3 1.3 1.4 1.2 2.1 2.2 3.7 1.9 3.1 3.4 2.3 4.5 4.6 1.2 2.5-.2 4.4 1.3 6 .7.8 1.7 1 2.3 1.2.5-1.1 2.5-5.7.6-10.9-1-2.9-2.7-4.7-3.7-5.7z" fill="#d08b73"></path><path d="m80.1 185.1-3.9 1.5s-5.8.3-6.3 1l-2.5 2.3-.9-1.6.3-2.4c1.5-1.1 3-2.1 3-2.2l5.8-1.3 4.1 1.2z" fill="#bc6c56"></path><path d="m91.1 150.6c-.6.6-2 2.9-3.3 2.8s-5.3-7.1-6.3-9.1-5.4-.6-5.4-.6c-.6-2 .8-4.5 2.3-6.4.8-.1 1.3 0 2 .3 1.1.5 2.3 1.1 3.2 1.9 1.2 1.1 2.3 2.4 3.3 3.6l3.5 3.8c.5.6 1.1 1.1 1.6 1.7.3.3.6.6.7 1 .1-.1-1.1.3-1.6 1z" fill="#282e5b"></path><path d="m80.1 137.4.3-1.8c1.1.4 2.3.7 3.1.1 1.1-.9-.1-3 .7-5 .5-1.2 1.9-2.5 5.5-3.3-.5-.1-1.1-.3-1.8-.7-2.3-1.7-2.3-6.1-.9-6.9 1.1-.6 3.3 1 4.4 2.4.6.8.9 1.6 1.1 2.1l1.7.9c-.1-.9.1-1.8.4-2.6.6-1.8 1.8-2.7 3.2-5.5.3-.6.4-.9.4-1.4-.1-1-1.3-1.2-1.6-2.5-.1-.3-.2-.8.1-1.2.5-.6 2.2-.3 3.3.5.7.5 1 1.1 1.2 1.4.3.5 0 .1.2.7 2.6 6.6.8 6.1 1.4 8 .4 1.3 1.3 2.4 1.9 3.6.5 1 .6 2.3-.8 2.6-.2.1-.5.1-.7.1-.3 0-.7-.2-1-.1-.1.1-.5 7.8-.6 8.2s-.3.8-.7.9-.8.1-1.2.1c-.6 0-1.3.1-1.9-.1-.8-.1-1.5-.6-2.4-.5-.3 0-.7.1-.9.5-.1.1-3.8 9.2-3.8 9.3z" fill="#d08b73"></path><path d="m95.2 137.4c-.2 0-.5.2-.7.5 0 0-.6 1.5-1.3 3.2l-6.4-9.9c.3.3 1.6 1.8 3.4 3.2 1.6 1.3 3.6 2.3 5 3z" fill="#bc6c56"></path><path d="m66.2 188.7c-.3 0-.5-.5-.7-.6-.5-.7-.8-1.5-1.1-2.3-.3-.9-1.2-1.8-.8-2.8.6-1.4 2.3-2.3 3.6-3 2-1 4.3-1.5 6.5-1.6 1.3-.1 3-.1 4.2.6s1 2 1.4 3.2c.2.5.5 1 0 1.5-.4.3-.9.5-1.4.6-1.2.3-2.5.4-3.7.6-2 .3-4.2.7-6 1.5-.5.2-1 .5-1.4.9-.1.1-.3.3-.3.5-.1.2-.1.5-.3.8.1 0 .1.1 0 .1z" fill="#282e5b"></path><path d="m89 121.6c0 1-.7.6-.4 1.5s.8.6 1.1 1.5-1.7.9-2.2-1.4c-.6-2.3 1.4-2.9 1.5-1.6z" fill="#bc6c56"></path><path d="m297.3 333.9c-.4 1.8-.7 3.7-.6 5.6.1 1.3.1 2.9.8 4.2.3.5.7.9 1.3 1s1.3.1 1.9.1l3.9-.1c1.4 0 2.9.1 4.1-.8v-13.2z" fill="#231f20"></path><path d="m311.7 130.6c-.4-.2-1.1.1-1.3.4h-20.1c-.2-.4-.7-1-1.2-1-1.3-.1-.7 2-.6 2.6.2.9.6 1.9.8 2.8.1.6.2 1.3.5 1.8s.8.6 1.3.7c.5 1.9.8 4 .9 6h15.4c.2-2.1.6-4 1.3-6 .9.6 1.4 0 1.7-.9.3-.8.5-1.6.7-2.4.3-.9.5-1.8.7-2.7.2-.4.3-1.1-.1-1.3z" fill="#d08b73"></path><path d="m316.3 331-8.9 2.9c0 3 .1 5.9.8 8.8.3 1.1.5 1.7 1.6 1.9 1.3.2 2.7.1 4.1.1.8 0 1.6-.1 2.3-.3 1.6-.6 1.9-2.2 1.8-3.7-.1-2.7-.4-5.5-1.3-8-.1-.3-.2-.6-.4-.9z" fill="#282e5b"></path><path d="m301.7 308.1-3.1 5.7c-.1 1.4-.3 2.9-.7 4.2-.3 1-.8 1.9-1 2.9-.1.7 0 1.5.2 2.2.2.9.3 1.6.3 2.5l-.1 4.7c0 .8-.3 1.5-.4 2.3-.1 1 .6 1.5 1.5 1.8 2.5.7 5.5.2 8.1-.2.4-.1.8-.1 1.1-.2l2.5-5z" fill="url(#e)"></path><path d="m320.4 218.7-20.9-2 .6 22.8 6.3 69.7 6.4 3.7 2-8.5 1.1-9.2 2.8-27.2c.2-2.6 1.2-5.1 1.6-7.7.4-2.8.6-5.7.5-8.6l.2-4.1.8-4.6c.5-2.8 1-5.5 1-8.4.1-2.9-.1-5.9-.5-8.8l-.3-2z" fill="url(#f)"></path><path d="m309.6 146.4c-.7-.9-1.3-1.9-2.2-2.6-2.6-2.2-6.7-2.4-10-1.9-2.1.3-4.2.9-5.9 2.3-1.8 1.3-3 3.3-4.2 5.2l9.6 3.3 14.9-2.9c-.7-1.2-1.5-2.3-2.2-3.4z" fill="#231f20"></path><path d="m290.2 131 1.2 4.8c.3.9.6 2 1.3 2.7 1 1.2 2.6.8 4 .8h4.8c1-.1 1.9.1 2.9.3 1.6.3 2.4-.8 3.1-2.1l2.2-4.4c.8-1.7 1-2.8 1.3-4.4.5-2.8-.2-2.5.2-6.1.1-.9.3-1.8-.1-2.7-.2-.6-.6-1-1.6-2l-2.7-2.4c-2.1-1.2-4.8-.5-6-.1l-3.5-2c-3.4-1.9-4.1-2.2-4.9-2-2 .3-3.1 2.7-3.4 3.4-1.1 2.3-.7 4.4.9 14.4 0-.2.1.7.3 1.8z" fill="#282e5b"></path><path d="m316.9 329.1c-.2-1.3-.4-2.8-.9-4-.3-.8-.7-1.5-.9-2.4-.2-.8-.2-1.5-.3-2.3-.1-1.7-.6-3.4-1.1-5.1l-1.6-5.6-1.3-6.3-3.2-11.6c-.2-.9-.3-1.8-.6-2.7-.3-.8-.6-1.7-.7-2.5s-.1-1.6-.1-2.5c0-.8-.2-1.6-.3-2.4-.4-1.9-.2-3.7-.1-5.6.1-3.9-1.1-7.6-1.8-11.4-.7-4.2-1.1-8.4-1.5-12.6s-.5-8.3-.9-12.5l-.9-24.9-23.2 12.4c-.1 1.8-.2 3.6.2 5.4.7 3.7 2.1 7.3 3 11l3.7 14.4c1 3.8 2.1 7.6 3.3 11.4.6 1.9 1.2 3.8 1.9 5.7.5 1.5 1.1 3 1.2 4.6 0 1 0 2 .2 3 .1.8.4 1.5.6 2.2.4 1.2.9 2.4.9 3.7 0 1.5-.6 3-.6 4.5 0 1.2.3 2.3.7 3.4 1.6 3.9 3.1 7.9 4.4 12 1.4 4.3 2.5 8.8 3.7 13.2l1.4 5c.3 1 .6 2.1 1.4 3 .7.8 1.6 1.3 2.2 2.2.7 1 1.4 2 2.5 2.6.6.4 1.3.5 2 .3l3-.6c.6-.1 1.2-.3 1.8-.5 1.6-.7 2.1-3 1.9-4.5z" fill="url(#g)"></path><path d="m301.1 226.7c-1.5-.3-3.2-.7-3.3-.8-.3-.2-6.2-.3-6.2-.3s-10.8 3.6-11.6 3.6c-.9 0-1.7 0-2.6-.1 0-.7 0-1.3.1-2l10-5.3 13.5.4z" fill="url(#h)"></path><path d="m334.4 181.3-.6-3c-2.1-15.8-3.2-14.4-7-20.1-.5-.7-.9-1.4-1.5-1.9-1.8-1.7-7.6-3.1-11.6-5.4-.5-.3-.9-.5-1.4-.8-.6-.4-1.3-.9-2-1.2-2.4-1.4-5.2-2.2-7.9-2.6s-5.5-.2-8.1.4c-2.8.7-5.5 1.8-8 3.3-10.7 6.4-12.7 6.4-14.5 9.4-2.9 4.6-4.6 21.4-4.7 21.5-.2 1.1-.6 2.4-.5 3.6s1.9.5 2.6.4c1.5-.3 3.1-.7 4.6-1 1.4-.3 2.8-.2 4.3-.2 0 .1-.6 30.6-.6 30.7.2.5.6.8.9 1.2.2.4 0 .8-.2 1.2-.3.4-.6.7-.7 1.3-.2.7 0 1.3.1 2 .3 1.4-.2 2.6-.2 4v2.4c0 .3 0 .6.1.8.3.4 1 .3 1.4.2 2-.4 3.7-1.7 5.6-2.2 2.5-.6 5.1-.7 7.7-.9.6-.1 1.2-.1 1.8-.1l29.1 1.4-1.5-43.2c2-.6 4.1-.8 6.2-.8 1 0 2.1.1 3.1.3.9.1 1.7.5 2.6.7.4.1.8.1 1-.3 0-.7-.1-.9-.1-1.1z" fill="#282e5b"></path><path d="m281.8 187.6c-.6 1.2-2.6 2.3-3.8 2.9.1-3.1.1-5.5.1-6.4h1.3s2-11.5 2-14.5 1.4 16.3.4 18z" fill="#231f20"></path><path d="m321.9 190.1c-1.2-1.1-3.1-3-4.1-4.5-1.4-2.2-.4-18.9-.4-18.9.6 8 1.6 14.6 3.6 17.1l.8 3z" fill="#231f20"></path><path d="m334.2 194.6-.2-10.9c0-.4 0-.9-.1-1.4 0 0-1.2-2.2-6.9-2.6s-6 4.1-6 4.1c0 .5.1 1 .1 1.5.2 1.8.6 3.7 1.2 5.4.2.6.6 1.2.9 1.8.1.2.2.5.3.8 0 .4-.2.7-.5 1-1.2 1.3-2.8 2.4-4.1 3.6-2.9 2.5-5 5.6-8 7.9-1.8 1.3-3.6 2.4-5.4 3.6-1.1.7-2.4 1.6-3.7 1.8-1 .2-2-.1-3-.4-1-.2-1.6-.2-2.6.1l-6.5 4.3c-.9.6-2.1 1.9-2 3.2 0 .3.2.7.5.9s.8.1 1.1.3c.4.2.6.6.9.9.6.5.9.5 1.3 1.2.4.6.7.6 1.3.9s.8 1 1.2 1.6c.2.3.5.5.9.6.9.2 2 .1 2.9-.1.1 0 .2-.1.4-.1l8.7-6.9c2.9-2 5.9-3.9 9.1-5.5s6.2-3.3 9.1-5.6c1.5-1.2 2.9-2.4 4.3-3.6.6-.5 1.2-1.1 1.9-1.6.6-.4 1.2-.8 1.7-1.2 1.6-1.1 1.2-3.8 1.2-5.6z" fill="#d08b73"></path><path d="m309.5 225c-.3.2-.8.4-1.1.8-.3.3-.2.8-.5 1.2-.2.3-.4.4-.7.4-.9.2-1.7 0-2.5.3-.8.2-1.3.8-2.1 1.1-.2 0-.4.1-.6 0-.6-.3-1-1.1-1.4-1.5-1-1.2-2-2.4-3.2-3.4-.5-.4-1-.9-1.6-1.3.1-.6.1-1.2 0-1.7-.1-.3-.3-.7-.2-1 .1-.4.5-.8.6-1.2.2-.7.3-1.5.3-2.2 0-.3-.1-.5-.3-.7-.3-.4-.3-.6-.5-1.1-.4-.9-1.8-.1-2.4-.1-.7 0-1.3-.3-2-.1-.5.1-.9.3-1.3.6-.1.1-.2.1-.3.2-.4-.1-.7-.3-1.1-.4-2.8-1.1-5.2-3-7.7-4.6-2.3-1.5-4.4-3.2-6.4-5.1l-3.5-3.4c-1-.9-2-1.8-2.8-2.8-.4-.6-.9-1.3-1.1-2-.2-.8.1-1.7.1-2.6l-.1-7.9v-1.3s1.2-1.4 5.1-1.6 5.8-.1 5.8-.1v1.7l.2 8.9c1 .9 2 1.7 2.9 2.8l3.1 3.9c2 2.5 4.4 4.6 6.9 6.6 2.4 2 4.8 3.8 7.8 4.8 1.2.4 2.4.7 3.5 1.3.8.5 1.5 1.2 2.2 1.9l3.3 3.3c.8.8 1.5 1.7 1.9 2.8.5 1.1.5 2.4-.3 3.5z" fill="#bc6c56"></path><path d="m334 184.1c-2.3-1.1-6.3-2.8-7.8-2.8-2.2 0-4.9 4.3-4.9 4.3l-.1.1c0-.1 0-.3-.1-.4 0-.5-.1-1-.1-1.5 0 0 .3-4.5 6-4.1s6.9 2.6 6.9 2.6c.1.5.1 1 .1 1.4z" fill="#bc6c56"></path><path d="m278 185.2c-1.5-.2-3.5-.5-4.8-.6-1.7-.1-4.5 1.2-6.1 1.9v-1.3s1.2-1.4 5.1-1.6 5.8-.1 5.8-.1z" fill="#80493a" opacity=".5"></path><path d="m258.8 129.9c-3.8 0-6.8-3.1-6.8-6.9s3.1-6.9 6.8-6.9 6.9 3.1 6.9 6.9-3.1 6.9-6.9 6.9zm0-12.3c-3 0-5.3 2.4-5.3 5.4s2.4 5.4 5.3 5.4 5.4-2.4 5.4-5.4-2.4-5.4-5.4-5.4z" fill="#fd9c01"></path></svg> 